<svg width="18" height="20" viewBox="0 0 18 20" fill="none" xmlns="http://www.w3.org/2000/svg">
<path d="M12.6 11.25C11.4469 11.25 10.8924 11.875 9 11.875C7.10759 11.875 6.55714 11.25 5.4 11.25C2.41875 11.25 0 13.6016 0 16.5V18.125C0 19.1602 0.863839 20 1.92857 20H16.0714C17.1362 20 18 19.1602 18 18.125V16.5C18 13.6016 15.5813 11.25 12.6 11.25ZM16.7143 18.125C16.7143 18.4688 16.425 18.75 16.0714 18.75H1.92857C1.575 18.75 1.28571 18.4688 1.28571 18.125V16.5C1.28571 14.293 3.12991 12.5 5.4 12.5C6.1875 12.5 6.97098 13.125 9 13.125C11.025 13.125 11.8125 12.5 12.6 12.5C14.8701 12.5 16.7143 14.293 16.7143 16.5V18.125ZM9 10C11.8406 10 14.1429 7.76172 14.1429 5C14.1429 2.23828 11.8406 0 9 0C6.15938 0 3.85714 2.23828 3.85714 5C3.85714 7.76172 6.15938 10 9 10ZM9 1.25C11.1254 1.25 12.8571 2.93359 12.8571 5C12.8571 7.06641 11.1254 8.75 9 8.75C6.87455 8.75 5.14286 7.06641 5.14286 5C5.14286 2.93359 6.87455 1.25 9 1.25Z" fill="#1B1B1B"/>
</svg>
