<svg width="14" height="12" viewBox="0 0 14 12" fill="none" xmlns="http://www.w3.org/2000/svg">
<path d="M11.375 11.25H9.07812C8.89766 11.25 8.75 11.1023 8.75 10.9219V10.2656C8.75 10.0852 8.89766 9.9375 9.07812 9.9375H11.375C12.0996 9.9375 12.6875 9.34961 12.6875 8.625V3.375C12.6875 2.65039 12.0996 2.0625 11.375 2.0625H9.07812C8.89766 2.0625 8.75 1.91484 8.75 1.73438V1.07812C8.75 0.897656 8.89766 0.75 9.07812 0.75H11.375C12.8242 0.75 14 1.92578 14 3.375V8.625C14 10.0742 12.8242 11.25 11.375 11.25ZM4.56914 1.2832L4.0332 1.81914C3.90195 1.95039 3.90469 2.16094 4.03867 2.28672L7.13125 5.28906H0.328125C0.147656 5.28906 0 5.43672 0 5.61719V6.38281C0 6.56328 0.147656 6.71094 0.328125 6.71094H7.13125L4.03867 9.71055C3.90742 9.83906 3.90469 10.0496 4.0332 10.1781L4.56914 10.7141C4.69766 10.8426 4.90547 10.8426 5.03398 10.7141L9.5293 6.22969C9.65781 6.10117 9.65781 5.89336 9.5293 5.76484L5.03398 1.28047C4.90547 1.15469 4.69766 1.15469 4.56914 1.2832Z" fill="#1B1B1B"/>
</svg>
