<svg width="30" height="26" viewBox="0 0 30 26" fill="none" xmlns="http://www.w3.org/2000/svg">
<path d="M29.9536 22.5088L24.037 0.967891C23.8646 0.340234 23.2089 -0.161484 22.4036 0.04875L21.599 0.258984C21.2771 0.343281 20.9984 0.583984 20.7625 0.982109C20.0318 1.33453 18.0385 1.85605 17.2208 1.90734C16.8125 1.6773 16.4474 1.60469 16.1255 1.68898L15.3203 1.89922C15.1943 1.93223 15.1016 1.99824 15 2.05562V1.625C15 0.727695 14.2536 0 13.3333 0H10C9.07969 0 8.33333 0.727695 8.33333 1.625V4.875H15L20.2948 25.0321C20.4672 25.6598 21.1229 26.1615 21.9281 25.9513L22.7328 25.741C23.0547 25.6567 23.3333 25.416 23.5693 25.0179C24.2938 24.6685 26.287 24.1445 27.1109 24.0927C27.5193 24.3227 27.8844 24.3953 28.2063 24.311L29.0115 24.1008C29.8161 23.8905 30.1266 23.1364 29.9536 22.5088ZM22.9536 22.1503L18.1583 4.69066L21.3781 3.84973L26.1734 21.3093L22.9536 22.1503ZM0 19.5H6.66667V6.5H0V19.5ZM5 0H1.66667C0.746354 0 0 0.727695 0 1.625V4.875H6.66667V1.625C6.66667 0.727695 5.92031 0 5 0ZM0 24.375C0 25.2723 0.746354 26 1.66667 26H5C5.92031 26 6.66667 25.2723 6.66667 24.375V21.125H0V24.375ZM8.33333 19.5H15V6.5H8.33333V19.5ZM8.33333 24.375C8.33333 25.2723 9.07969 26 10 26H13.3333C14.2536 26 15 25.2723 15 24.375V21.125H8.33333V24.375Z" fill="#0161A5"/>
</svg>
