<svg width="31" height="26" viewBox="0 0 31 26" fill="none" xmlns="http://www.w3.org/2000/svg">
<path d="M12.742 24.9117L12.7422 24.9118C13.0735 25.0813 13.4334 25.1886 13.7995 25.2299V25.25H14.0495H16.9505H17.2005V25.2299C17.5666 25.1886 17.9265 25.0813 18.2578 24.9118L18.258 24.9117C19.5594 24.2448 21.24 23.8189 22.8156 23.5493C24.3872 23.2804 25.8359 23.1698 26.6636 23.1253C28.6779 23.0192 30.25 21.3328 30.25 19.2939V4.58828C30.25 2.47493 28.5541 0.75 26.4615 0.75C26.164 0.75 24.3895 0.827408 22.1969 1.20097C20.0545 1.56597 17.4839 2.21829 15.5 3.37607C13.5161 2.21829 10.9455 1.56597 8.80311 1.20097C6.61046 0.827408 4.836 0.75 4.53845 0.75C2.44594 0.75 0.75 2.47493 0.75 4.58828V19.2939C0.75 21.3328 2.32207 23.0192 4.33635 23.1253C5.16406 23.1698 6.61276 23.2804 8.18438 23.5493C9.75995 23.8189 11.4406 24.2448 12.742 24.9117ZM13.5376 22.0069L13.5375 22.0069C10.5723 20.8404 6.4837 20.4866 4.47351 20.3783L4.47306 20.3783C3.88205 20.3475 3.425 19.8681 3.425 19.2939V4.58828C3.425 3.99295 3.92021 3.50034 4.53646 3.5C4.97291 3.50235 6.39258 3.59234 8.11028 3.87302C9.82992 4.15401 11.8267 4.62278 13.4267 5.37425L13.5313 5.1515L13.4267 5.37425C13.8665 5.58081 14.1562 6.02645 14.1566 6.52816V6.52826L14.1625 11.5V11.5003V21.5383C14.1625 21.9014 13.8257 22.1204 13.5376 22.0069ZM26.5268 20.3788L26.5265 20.3788C24.5163 20.4866 20.4278 20.8403 17.4626 22.0073C17.1742 22.1207 16.8375 21.9016 16.8375 21.5387V11.5003V11.5L16.8438 6.52788C16.8446 6.02601 17.134 5.58071 17.5739 5.37371C19.1739 4.62251 21.1706 4.15388 22.8901 3.87296C24.6078 3.59234 26.0273 3.50235 26.4635 3.5C27.0798 3.50034 27.575 3.99295 27.575 4.58828V19.2939C27.575 19.8681 27.118 20.3476 26.5268 20.3788Z" fill="#0161A5" stroke="#0161A5" stroke-width="0.5"/>
</svg>
