<svg width="57" height="44" viewBox="0 0 57 44" fill="none" xmlns="http://www.w3.org/2000/svg">
<path d="M24.9375 15.25C25.3294 15.25 25.65 14.9266 25.65 14.5312V13.0938C25.65 12.6984 25.3294 12.375 24.9375 12.375H3.5625C3.17062 12.375 2.85 12.6984 2.85 13.0938V14.5312C2.85 14.9266 3.17062 15.25 3.5625 15.25H24.9375ZM56.2875 32.5H54.15V22.7879C54.15 21.2785 53.5444 19.7961 52.4756 18.727L45.0033 11.1891C43.9523 10.1109 42.4828 9.5 40.9777 9.5H37.05V5.06172C37.05 2.75273 35.0728 0.875 32.6503 0.875H10.0997C7.67719 0.875 5.7 2.75273 5.7 5.06172V6.625H0.7125C0.320625 6.625 0 6.94844 0 7.34375V8.78125C0 9.17656 0.320625 9.5 0.7125 9.5H22.0875C22.4794 9.5 22.8 9.17656 22.8 8.78125V7.34375C22.8 6.94844 22.4794 6.625 22.0875 6.625H8.55V5.06172C8.55 4.33398 9.24469 3.75 10.0997 3.75H32.6503C33.5053 3.75 34.2 4.33398 34.2 5.06172V32.5H18.4894C17.1891 30.766 15.1406 29.625 12.825 29.625C11.213 29.625 9.74344 30.182 8.55 31.0984V23.875H5.7V36.8125C5.7 40.7836 8.88844 44 12.825 44C16.7616 44 19.95 40.7836 19.95 36.8125C19.95 36.3184 19.8966 35.8422 19.8075 35.375H37.1925C37.0945 35.8422 37.05 36.3184 37.05 36.8125C37.05 40.7836 40.2384 44 44.175 44C48.1116 44 51.3 40.7836 51.3 36.8125C51.3 36.3184 51.2466 35.8422 51.1575 35.375H56.2875C56.6794 35.375 57 35.0516 57 34.6562V33.2188C57 32.8234 56.6794 32.5 56.2875 32.5ZM12.825 41.125C10.4648 41.125 8.55 39.1934 8.55 36.8125C8.55 34.4316 10.4648 32.5 12.825 32.5C15.1852 32.5 17.1 34.4316 17.1 36.8125C17.1 39.1934 15.1852 41.125 12.825 41.125ZM37.05 12.375H40.9777C41.7258 12.375 42.465 12.6805 42.9905 13.2195L50.4628 20.7574C50.5341 20.8293 50.5608 20.9281 50.6231 21.009H37.05V12.375ZM44.175 41.125C41.8148 41.125 39.9 39.1934 39.9 36.8125C39.9 34.4316 41.8148 32.5 44.175 32.5C46.5352 32.5 48.45 34.4316 48.45 36.8125C48.45 39.1934 46.5352 41.125 44.175 41.125ZM51.3 32.5H49.8394C48.5391 30.766 46.4906 29.625 44.175 29.625C41.8594 29.625 39.8109 30.766 38.5106 32.5H37.05V23.875H51.3V32.5ZM22.8 20.2812V18.8438C22.8 18.4484 22.4794 18.125 22.0875 18.125H0.7125C0.320625 18.125 0 18.4484 0 18.8438V20.2812C0 20.6766 0.320625 21 0.7125 21H22.0875C22.4794 21 22.8 20.6766 22.8 20.2812Z" fill="white"/>
</svg>
