<svg width="22" height="18" viewBox="0 0 22 18" fill="none" xmlns="http://www.w3.org/2000/svg">
<path d="M21.4107 2.8125H0.589286C0.263853 2.8125 0 2.56064 0 2.25V0.75C0 0.439359 0.263853 0.1875 0.589286 0.1875H21.4107C21.7361 0.1875 22 0.439359 22 0.75V2.25C22 2.56064 21.7361 2.8125 21.4107 2.8125ZM21.4107 10.3125H0.589286C0.263853 10.3125 0 10.0606 0 9.75V8.25C0 7.93936 0.263853 7.6875 0.589286 7.6875H21.4107C21.7361 7.6875 22 7.93936 22 8.25V9.75C22 10.0606 21.7361 10.3125 21.4107 10.3125ZM21.4107 17.8125H0.589286C0.263853 17.8125 0 17.5606 0 17.25V15.75C0 15.4394 0.263853 15.1875 0.589286 15.1875H21.4107C21.7361 15.1875 22 15.4394 22 15.75V17.25C22 17.5606 21.7361 17.8125 21.4107 17.8125Z" fill="#1B1B1B"/>
</svg>
