<svg width="20" height="20" viewBox="0 0 20 20" fill="none" xmlns="http://www.w3.org/2000/svg">
<path d="M18.5714 0.375H1.42411C0.638393 0.375 0 0.998047 0 1.76289V18.2371C0 19.002 0.638393 19.625 1.42411 19.625H18.5714C19.3571 19.625 20 19.002 20 18.2371V1.76289C20 0.998047 19.3571 0.375 18.5714 0.375ZM6.04464 16.875H3.08036V7.68828H6.04911V16.875H6.04464ZM4.5625 6.43359C3.61161 6.43359 2.84375 5.69023 2.84375 4.7793C2.84375 3.86836 3.61161 3.125 4.5625 3.125C5.50893 3.125 6.28125 3.86836 6.28125 4.7793C6.28125 5.69453 5.51339 6.43359 4.5625 6.43359ZM17.1562 16.875H14.192V12.4062C14.192 11.3406 14.1696 9.96992 12.6518 9.96992C11.1071 9.96992 10.8705 11.1301 10.8705 12.3289V16.875H7.90625V7.68828H10.75V8.94297H10.7902C11.1875 8.22109 12.1563 7.46055 13.5982 7.46055C16.5982 7.46055 17.1562 9.36406 17.1562 11.8391V16.875Z" fill="#656565"/>
</svg>
