<svg width="13" height="11" viewBox="0 0 13 11" fill="none" xmlns="http://www.w3.org/2000/svg">
<path d="M11.7812 0.625H1.21875C0.545645 0.625 0 1.17064 0 1.84375V9.15625C0 9.82936 0.545645 10.375 1.21875 10.375H11.7812C12.4544 10.375 13 9.82936 13 9.15625V1.84375C13 1.17064 12.4544 0.625 11.7812 0.625ZM11.7812 1.84375V2.87981C11.2119 3.34342 10.3043 4.06431 8.364 5.58366C7.9364 5.92001 7.08937 6.72807 6.5 6.71865C5.91073 6.72817 5.06342 5.91989 4.636 5.58366C2.69598 4.06454 1.78813 3.3435 1.21875 2.87981V1.84375H11.7812ZM1.21875 9.15625V4.4437C1.80055 4.9071 2.62562 5.55738 3.88319 6.54213C4.43815 6.97898 5.41003 7.94334 6.5 7.93747C7.58461 7.94334 8.54417 6.99297 9.11658 6.54234C10.3741 5.55761 11.1994 4.90715 11.7812 4.44372V9.15625H1.21875Z" fill="#818181"/>
</svg>
