<svg width="38" height="34" viewBox="0 0 38 34" fill="none" xmlns="http://www.w3.org/2000/svg">
<path d="M37.9472 20.5793L37.6108 19.5699C37.426 19.0121 36.8257 18.7133 36.2781 18.8992L35.0312 19.3242L30.2878 5.00039C30.0635 4.32969 29.5951 3.78516 28.9618 3.46641C28.3351 3.1543 27.616 3.10117 26.9497 3.32031L12.3104 8.23438L10.4236 2.54336C9.92222 1.02266 8.51042 0 6.92708 0H1.05556C0.475 0 0 0.478125 0 1.0625V2.125C0 2.70937 0.475 3.1875 1.05556 3.1875H6.92049C7.14479 3.1875 7.34931 3.33359 7.42188 3.55273L13.5969 22.1996C11.776 23.3219 10.549 25.3207 10.549 27.625C10.549 31.1445 13.3858 34 16.8823 34C20.3788 34 23.2156 31.1445 23.2156 27.625C23.2156 27.2996 23.1694 26.9941 23.1233 26.682L37.2743 21.9273C37.8285 21.7414 38.1319 21.1371 37.9472 20.5793ZM16.8889 30.8125C15.1406 30.8125 13.7222 29.3848 13.7222 27.625C13.7222 25.8652 15.1406 24.4375 16.8889 24.4375C18.6372 24.4375 20.0556 25.8652 20.0556 27.625C20.0556 29.3848 18.6372 30.8125 16.8889 30.8125ZM21.8764 23.7402C20.7153 22.2328 18.9274 21.25 16.8889 21.25C16.8031 21.25 16.7174 21.2699 16.6316 21.2766L13.3132 11.2625L19.0198 9.35L20.3326 13.3145C20.5174 13.8723 21.1177 14.1711 21.6653 13.9852L22.6681 13.6465C23.2222 13.4605 23.5191 12.8562 23.3344 12.3051L22.0215 8.34062L27.451 6.52109L32.0295 20.3402L21.8764 23.7402Z" fill="white"/>
</svg>
