<svg width="13" height="13" viewBox="0 0 13 13" fill="none" xmlns="http://www.w3.org/2000/svg">
<path d="M12.2954 8.37879L9.71592 7.27303C9.48436 7.17456 9.22714 7.15375 8.98276 7.21371C8.73838 7.27367 8.52 7.41118 8.36032 7.60565L7.53004 8.62127C6.19815 7.89536 5.10345 6.80128 4.37678 5.46979L5.39241 4.63952C5.58687 4.47966 5.72436 4.26115 5.78432 4.01666C5.84427 3.77217 5.82347 3.51484 5.72502 3.28315L4.62104 0.705496C4.51448 0.454643 4.3229 0.249385 4.07998 0.125811C3.83706 0.00223745 3.55835 -0.0317404 3.29286 0.0298516L0.901313 0.581082C0.644701 0.639318 0.415588 0.783246 0.251737 0.989145C0.0878863 1.19504 -0.000923517 1.45062 -5.47209e-05 1.71376C-5.47209e-05 7.96645 5.06995 13.0024 11.2876 12.9999C11.5507 13.0007 11.8062 12.9118 12.012 12.7479C12.2178 12.584 12.3616 12.3549 12.4198 12.0983L12.9707 9.70596C13.0315 9.44067 12.9971 9.16247 12.8737 8.91992C12.7503 8.67737 12.5456 8.48585 12.2954 8.37879ZM11.2394 11.7834C5.71487 11.758 1.24409 7.287 1.2187 1.75946L3.52137 1.2288L4.59006 3.72266L2.86122 5.13717C4.03909 7.65085 5.35432 8.96176 7.86317 10.1391L9.27717 8.40977L11.7703 9.47897L11.2394 11.7834Z" fill="#1B1B1B"/>
</svg>
