<svg width="20" height="18" viewBox="0 0 20 18" fill="none" xmlns="http://www.w3.org/2000/svg">
<path d="M11.9444 4.42969C11.9444 3.96211 11.5729 3.58594 11.1111 3.58594C10.6493 3.58594 10.2778 3.96211 10.2778 4.42969C10.2778 4.89375 10.6493 5.27344 11.1111 5.27344C11.5729 5.27344 11.9444 4.89375 11.9444 4.42969ZM11.1111 12.375C11.2847 12.375 11.4583 12.3047 11.5799 12.1605C12.8056 10.7543 16 6.88359 16 4.75664C16 2.13047 13.8125 0 11.1111 0C8.40972 0 6.22222 2.13047 6.22222 4.75664C6.22222 6.88008 9.41667 10.7543 10.6424 12.1605C10.7639 12.3047 10.9375 12.375 11.1111 12.375ZM11.1111 1.6875C12.8889 1.6875 14.3333 3.06563 14.3333 4.75664C14.3333 5.50898 13.2292 7.5375 11.1111 10.1215C8.99306 7.5375 7.88889 5.50898 7.88889 4.75664C7.88889 3.06563 9.33333 1.6875 11.1111 1.6875ZM19.4444 5.625C19.375 5.625 19.3056 5.63906 19.2361 5.66719L16.684 6.62344C16.3993 7.34062 15.9826 8.1 15.4965 8.86641L18.3333 7.80469V14.5898L13.8889 16.1543V11.1199C13.4132 11.7281 12.9201 12.3258 12.4132 12.9059C12.3542 12.9727 12.2882 13.0289 12.2222 13.0852V15.9469L7.77778 14.3578V10.3852C7.14931 9.53789 6.56944 8.66953 6.11111 7.82578V14.1609L6.09028 14.168L1.66667 15.8203V9.03516L5.95833 7.52344C5.68056 6.98203 5.46875 6.4582 5.32292 5.95898L0.697917 7.59375C0.277778 7.7625 0 8.17734 0 8.63789V17.4375C0 17.7609 0.260417 18 0.555556 18C0.625 18 0.694444 17.9859 0.763889 17.9578L6.66667 15.75L12.6389 17.884C13.0903 18.0352 13.5764 18.0387 14.0278 17.891L19.3021 16.0312C19.7257 15.859 20 15.4477 20 14.9871V6.1875C20 5.86406 19.7396 5.625 19.4444 5.625Z" fill="#656565"/>
</svg>
