<svg width="20" height="20" viewBox="0 0 20 20" fill="none" xmlns="http://www.w3.org/2000/svg">
<path d="M17.8571 0.375H2.14286C0.959821 0.375 0 1.29883 0 2.4375V17.5625C0 18.7012 0.959821 19.625 2.14286 19.625H17.8571C19.0402 19.625 20 18.7012 20 17.5625V2.4375C20 1.29883 19.0402 0.375 17.8571 0.375ZM15.6741 7.19844C15.683 7.31875 15.683 7.44336 15.683 7.56367C15.683 11.2891 12.7366 15.5816 7.35268 15.5816C5.69196 15.5816 4.15179 15.1176 2.85714 14.3184C3.09375 14.3441 3.32143 14.3527 3.5625 14.3527C4.93304 14.3527 6.19196 13.9059 7.19643 13.1496C5.91071 13.1238 4.83036 12.3117 4.45982 11.1945C4.91071 11.259 5.31696 11.259 5.78125 11.143C4.44196 10.8809 3.4375 9.74648 3.4375 8.37578V8.34141C3.82589 8.55195 4.28125 8.68086 4.75893 8.69805C4.35733 8.44094 4.02812 8.09213 3.80066 7.68276C3.5732 7.27339 3.45457 6.81619 3.45536 6.35195C3.45536 5.82773 3.59821 5.34648 3.85268 4.92969C5.29464 6.63984 7.45982 7.75703 9.88839 7.87734C9.47321 5.96523 10.9598 4.41406 12.7455 4.41406C13.5893 4.41406 14.3482 4.75352 14.8839 5.30352C15.5446 5.1832 16.1786 4.94687 16.7411 4.62461C16.5223 5.27773 16.0625 5.82773 15.4554 6.17578C16.0446 6.11562 16.6161 5.95664 17.1429 5.7375C16.7455 6.30039 16.2455 6.79883 15.6741 7.19844Z" fill="#656565"/>
</svg>
