<svg width="19" height="17" viewBox="0 0 19 17" fill="none" xmlns="http://www.w3.org/2000/svg">
<path d="M17.0109 1.38615C14.866 -0.417363 11.5522 -0.146465 9.50001 1.94279C7.44786 -0.146465 4.13399 -0.421074 1.98907 1.38615C-0.801558 3.73518 -0.393355 7.56486 1.59571 9.59475L8.10469 16.2262C8.47579 16.6047 8.97305 16.8162 9.50001 16.8162C10.0307 16.8162 10.5242 16.6084 10.8953 16.2299L17.4043 9.59846C19.3897 7.56857 19.8053 3.73889 17.0109 1.38615ZM16.1352 8.34416L9.62618 14.9756C9.53712 15.0647 9.4629 15.0647 9.37383 14.9756L2.86485 8.34416C1.51036 6.96369 1.23575 4.35119 3.13575 2.75178C4.5793 1.5383 6.80587 1.72014 8.20118 3.14143L9.50001 4.46623L10.7988 3.14143C12.2016 1.71271 14.4281 1.5383 15.8643 2.74807C17.7606 4.34748 17.4785 6.97482 16.1352 8.34416Z" fill="#656565"/>
</svg>
