<svg width="22" height="20" viewBox="0 0 22 20" fill="none" xmlns="http://www.w3.org/2000/svg">
<path d="M21.083 2.5H4.93778L4.61966 0.764727C4.53834 0.321328 4.1598 0 3.71869 0H0.458333C0.205219 0 0 0.209883 0 0.46875V0.78125C0 1.04012 0.205219 1.25 0.458333 1.25H3.465L6.13582 15.8182C5.74082 16.2623 5.5 16.8523 5.5 17.5C5.5 18.8807 6.59442 20 7.94444 20C9.29447 20 10.3889 18.8807 10.3889 17.5C10.3894 17.0611 10.2763 16.6298 10.0611 16.25H15.6056C15.3904 16.6298 15.2773 17.0611 15.2778 17.5C15.2778 18.8807 16.3722 20 17.7223 20C19.0723 20 20.1667 18.8807 20.1667 17.5C20.1667 16.7971 19.8827 16.1625 19.4262 15.7083C19.3272 15.3082 18.9735 15 18.5368 15H7.22944L6.77111 12.5H19.428C19.8622 12.5 20.2369 12.1884 20.3254 11.7537L21.9804 3.62871C22.099 3.04652 21.6645 2.5 21.083 2.5ZM9.16667 17.5C9.16667 18.1893 8.61839 18.75 7.94444 18.75C7.2705 18.75 6.72222 18.1893 6.72222 17.5C6.72222 16.8107 7.2705 16.25 7.94444 16.25C8.61839 16.25 9.16667 16.8107 9.16667 17.5ZM17.7222 18.75C17.0483 18.75 16.5 18.1893 16.5 17.5C16.5 16.8107 17.0483 16.25 17.7222 16.25C18.3962 16.25 18.9444 16.8107 18.9444 17.5C18.9444 18.1893 18.3962 18.75 17.7222 18.75ZM19.1796 11.25H6.54194L5.16694 3.75H20.7073L19.1796 11.25Z" fill="#1B1B1B"/>
</svg>
