<svg width="35" height="37" viewBox="0 0 35 37" fill="none" xmlns="http://www.w3.org/2000/svg">
<path d="M10.7937 16.6573C10.4541 16.3176 9.90488 16.3176 9.56523 16.65L7.9248 18.276C7.58516 18.6157 7.58516 19.1649 7.91758 19.5045L14.4793 26.1168C14.8189 26.4565 15.3682 26.4565 15.7078 26.1241L28.1809 13.7522C28.5205 13.4125 28.5205 12.8633 28.1881 12.5237L26.5621 10.8832C26.2225 10.5436 25.6732 10.5436 25.3336 10.876L15.1152 21.0077L10.7937 16.6573ZM32.7119 6.04866L18.8369 0.267412C18.4143 0.0920802 17.9612 0.00183105 17.5036 0.00183105C17.046 0.00183105 16.593 0.0920802 16.1703 0.267412L2.29531 6.04866C1.00176 6.58343 0.15625 7.84808 0.15625 9.25003C0.15625 23.5948 8.43066 33.5096 16.1631 36.7327C17.0158 37.0868 17.977 37.0868 18.8297 36.7327C25.0229 34.1528 34.8438 25.2424 34.8438 9.25003C34.8438 7.84808 33.9982 6.58343 32.7119 6.04866ZM17.5 33.5313C10.4541 30.5973 3.625 21.4846 3.625 9.25003L17.5 3.46878L31.375 9.25003C31.375 21.8098 24.2641 30.7129 17.5 33.5313Z" fill="white"/>
</svg>
