<svg width="18" height="16" viewBox="0 0 18 16" fill="none" xmlns="http://www.w3.org/2000/svg">
<path d="M17.5179 2.84375H0.482143C0.215879 2.84375 0 2.63387 0 2.375V1.125C0 0.866133 0.215879 0.65625 0.482143 0.65625H17.5179C17.7841 0.65625 18 0.866133 18 1.125V2.375C18 2.63387 17.7841 2.84375 17.5179 2.84375ZM17.5179 9.09375H0.482143C0.215879 9.09375 0 8.88387 0 8.625V7.375C0 7.11613 0.215879 6.90625 0.482143 6.90625H17.5179C17.7841 6.90625 18 7.11613 18 7.375V8.625C18 8.88387 17.7841 9.09375 17.5179 9.09375ZM17.5179 15.3438H0.482143C0.215879 15.3438 0 15.1339 0 14.875V13.625C0 13.3661 0.215879 13.1562 0.482143 13.1562H17.5179C17.7841 13.1562 18 13.3661 18 13.625V14.875C18 15.1339 17.7841 15.3438 17.5179 15.3438Z" fill="white"/>
</svg>
