<svg width="16" height="17" viewBox="0 0 16 17" fill="none" xmlns="http://www.w3.org/2000/svg">
<path d="M9.697 8.5L14.825 3.49219L15.8825 2.45947C16.0385 2.30713 16.0385 2.05957 15.8825 1.90723L14.751 0.802246C14.595 0.649902 14.3415 0.649902 14.1855 0.802246L8 6.84277L1.8145 0.801758C1.6585 0.649414 1.405 0.649414 1.249 0.801758L0.117 1.90674C-0.039 2.05908 -0.039 2.30664 0.117 2.45898L6.303 8.5L0.117 14.5405C-0.039 14.6929 -0.039 14.9404 0.117 15.0928L1.2485 16.1978C1.4045 16.3501 1.658 16.3501 1.814 16.1978L8 10.1572L13.128 15.165L14.1855 16.1978C14.3415 16.3501 14.595 16.3501 14.751 16.1978L15.8825 15.0928C16.0385 14.9404 16.0385 14.6929 15.8825 14.5405L9.697 8.5Z" fill="white"/>
</svg>
