<svg width="37" height="42" viewBox="0 0 37 42" fill="none" xmlns="http://www.w3.org/2000/svg">
<path d="M36.8632 35.5366L31.7137 24.2491C32.0804 23.3115 32.4009 23.0867 33.5588 21.9367C34.0169 21.4814 34.3464 20.9145 34.5142 20.2927C34.6819 19.671 34.6819 19.0163 34.5143 18.3946C33.8296 15.8557 33.8288 16.2084 34.5143 13.6679C34.6819 13.0461 34.6818 12.3915 34.5141 11.7698C34.3464 11.148 34.0169 10.581 33.5588 10.1258C31.6856 8.26369 31.864 8.57213 31.1785 6.0308C31.011 5.40894 30.6815 4.84188 30.2232 4.38669C29.7649 3.93149 29.194 3.60421 28.5679 3.43779C26.0109 2.75775 26.3198 2.93494 24.4467 1.07447C23.9884 0.619094 23.4175 0.291573 22.7913 0.124826C22.1652 -0.0419205 21.5058 -0.0420172 20.8797 0.124546C18.3301 0.802944 18.6753 0.804585 16.1209 0.124546C15.4947 -0.0419665 14.8354 -0.0418444 14.2092 0.1249C13.5831 0.291644 13.0122 0.619136 12.5538 1.07447C10.6824 2.9333 10.9904 2.75693 8.43263 3.43779C7.80654 3.60421 7.23562 3.93149 6.77733 4.38669C6.31904 4.84188 5.98954 5.40894 5.82198 6.0308C5.13732 8.57048 5.31571 8.26369 3.44258 10.1242C2.51015 11.0503 2.14511 12.4013 2.48703 13.6663C3.17169 16.2051 3.17252 15.8524 2.48703 18.3929C2.31939 19.0147 2.31944 19.6693 2.48717 20.2911C2.6549 20.9128 2.98441 21.4798 3.44258 21.935C4.68968 23.1745 4.93084 23.3345 5.28763 24.2475L0.137362 35.5366C-0.354869 36.6153 0.53792 37.7876 1.82631 37.7876C1.85026 37.7876 1.87504 37.7867 1.89899 37.7859L7.91644 37.58L12.0566 41.4888C12.4258 41.8358 12.9057 41.9999 13.3797 41.9999C14.0842 41.9999 14.7771 41.6397 15.0769 40.9827L18.5003 33.4793L21.9236 40.9827C22.2234 41.6397 22.9163 41.9999 23.6208 41.9999C24.0957 41.9999 24.5755 41.8358 24.943 41.4888L29.0832 37.58L35.1007 37.7859C35.1255 37.7867 35.1494 37.7876 35.1734 37.7876C36.4618 37.7867 37.3554 36.6153 36.8632 35.5366ZM12.6967 36.6596L9.44269 33.5884L5.31406 33.7295L7.76861 28.349C7.98252 28.454 8.19642 28.5599 8.43263 28.623C10.5089 29.1759 10.6452 29.0906 11.9889 30.4253C12.7017 31.1332 13.6465 31.4999 14.6012 31.4999C14.7623 31.4999 14.9208 31.4547 15.0811 31.4342L12.6967 36.6596ZM14.6417 27.4918C12.8231 25.6806 11.8551 25.4574 9.61035 24.8594C8.67379 21.3895 8.20303 21.0958 6.35633 19.2616C7.30694 15.74 7.00796 15.2109 6.35633 12.7984C8.9133 10.2587 8.93477 9.70662 9.61118 7.20056C12.0137 6.56236 12.6728 6.52627 15.2479 3.96853C18.7678 4.90533 19.3105 4.61986 21.7551 3.96853C23.5134 5.71498 23.8735 6.26377 27.391 7.20056C28.3276 10.6705 28.7983 10.9642 30.645 12.7992C29.7093 16.2691 29.9686 16.758 30.645 19.2641C28.8867 21.0105 28.3342 21.369 27.391 24.8627C25.2214 25.4402 24.2295 25.6371 22.3588 27.4951C19.787 26.0038 16.8237 26.2277 14.6417 27.4918ZM29.2195 33.645L27.5578 33.5884L24.3038 36.6596L21.9195 31.4342C22.0797 31.4556 22.2382 31.4999 22.3993 31.4999C23.3532 31.4999 24.2988 31.1332 25.0116 30.4253C26.3669 29.0791 26.4825 29.1784 28.5679 28.623C28.8033 28.5607 29.0172 28.454 29.2319 28.349L31.6865 33.7287L29.2195 33.645ZM26.4288 15.7499C26.4288 11.4006 22.8791 7.87486 18.5003 7.87486C14.1214 7.87486 10.5717 11.4006 10.5717 15.7499C10.5717 20.0992 14.1214 23.6249 18.5003 23.6249C22.8791 23.6249 26.4288 20.0992 26.4288 15.7499ZM18.5003 19.6874C16.3141 19.6874 14.536 17.9212 14.536 15.7499C14.536 13.5785 16.3141 11.8124 18.5003 11.8124C20.6864 11.8124 22.4645 13.5785 22.4645 15.7499C22.4645 17.9212 20.6864 19.6874 18.5003 19.6874Z" fill="white"/>
</svg>
