<svg width="20" height="20" viewBox="0 0 20 20" fill="none" xmlns="http://www.w3.org/2000/svg">
<path d="M8.33929 7.68398L12.5893 10.0086L8.33929 12.3332V7.68398ZM20 2.4375V17.5625C20 18.7012 19.0402 19.625 17.8571 19.625H2.14286C0.959821 19.625 0 18.7012 0 17.5625V2.4375C0 1.29883 0.959821 0.375 2.14286 0.375H17.8571C19.0402 0.375 20 1.29883 20 2.4375ZM18.125 10.0129C18.125 10.0129 18.125 7.45195 17.7857 6.22305C17.5982 5.54414 17.0491 5.01133 16.3482 4.83086C15.0848 4.5 10 4.5 10 4.5C10 4.5 4.91518 4.5 3.65179 4.83086C2.95089 5.01133 2.40179 5.54414 2.21429 6.22305C1.875 7.44766 1.875 10.0129 1.875 10.0129C1.875 10.0129 1.875 12.5738 2.21429 13.8027C2.40179 14.4816 2.95089 14.993 3.65179 15.1734C4.91518 15.5 10 15.5 10 15.5C10 15.5 15.0848 15.5 16.3482 15.1691C17.0491 14.9887 17.5982 14.4773 17.7857 13.7984C18.125 12.5738 18.125 10.0129 18.125 10.0129Z" fill="#656565"/>
</svg>
